<mxfile host="app.diagrams.net" modified="2021-05-25T00:55:51.461Z" agent="5.0 (Windows NT 10.0; Win64; x64) AppleWebKit/537.36 (KHTML, like Gecko) Chrome/90.0.4430.93 Safari/537.36" etag="nbU2SyzH0hBrA8Tgz-nY" version="14.7.0" type="github">
  <diagram id="C5RBs43oDa-KdzZeNtuy" name="Page-1">
    <mxGraphModel dx="1422" dy="762" grid="1" gridSize="10" guides="1" tooltips="1" connect="1" arrows="1" fold="1" page="1" pageScale="1" pageWidth="1169" pageHeight="1654" math="0" shadow="0">
      <root>
        <mxCell id="WIyWlLk6GJQsqaUBKTNV-0" />
        <mxCell id="WIyWlLk6GJQsqaUBKTNV-1" parent="WIyWlLk6GJQsqaUBKTNV-0" />
        <mxCell id="WIyWlLk6GJQsqaUBKTNV-2" value="" style="rounded=0;html=1;jettySize=auto;orthogonalLoop=1;fontSize=11;endArrow=block;endFill=0;endSize=8;strokeWidth=1;shadow=0;labelBackgroundColor=none;edgeStyle=orthogonalEdgeStyle;" parent="WIyWlLk6GJQsqaUBKTNV-1" source="WIyWlLk6GJQsqaUBKTNV-3" target="WIyWlLk6GJQsqaUBKTNV-6" edge="1">
          <mxGeometry relative="1" as="geometry" />
        </mxCell>
        <mxCell id="WIyWlLk6GJQsqaUBKTNV-3" value="广告活动列表" style="rounded=1;whiteSpace=wrap;html=1;fontSize=12;glass=0;strokeWidth=1;shadow=0;" parent="WIyWlLk6GJQsqaUBKTNV-1" vertex="1">
          <mxGeometry x="160" y="80" width="120" height="40" as="geometry" />
        </mxCell>
        <mxCell id="WIyWlLk6GJQsqaUBKTNV-4" value="Yes" style="rounded=0;html=1;jettySize=auto;orthogonalLoop=1;fontSize=11;endArrow=block;endFill=0;endSize=8;strokeWidth=1;shadow=0;labelBackgroundColor=none;edgeStyle=orthogonalEdgeStyle;" parent="WIyWlLk6GJQsqaUBKTNV-1" source="WIyWlLk6GJQsqaUBKTNV-6" edge="1">
          <mxGeometry y="20" relative="1" as="geometry">
            <mxPoint as="offset" />
            <mxPoint x="220" y="290" as="targetPoint" />
          </mxGeometry>
        </mxCell>
        <mxCell id="WIyWlLk6GJQsqaUBKTNV-5" value="No" style="edgeStyle=orthogonalEdgeStyle;rounded=0;html=1;jettySize=auto;orthogonalLoop=1;fontSize=11;endArrow=block;endFill=0;endSize=8;strokeWidth=1;shadow=0;labelBackgroundColor=none;" parent="WIyWlLk6GJQsqaUBKTNV-1" source="WIyWlLk6GJQsqaUBKTNV-6" target="WIyWlLk6GJQsqaUBKTNV-7" edge="1">
          <mxGeometry y="10" relative="1" as="geometry">
            <mxPoint as="offset" />
          </mxGeometry>
        </mxCell>
        <mxCell id="WIyWlLk6GJQsqaUBKTNV-6" value="广告专员" style="rhombus;whiteSpace=wrap;html=1;shadow=0;fontFamily=Helvetica;fontSize=12;align=center;strokeWidth=1;spacing=6;spacingTop=-4;" parent="WIyWlLk6GJQsqaUBKTNV-1" vertex="1">
          <mxGeometry x="170" y="170" width="100" height="80" as="geometry" />
        </mxCell>
        <mxCell id="WIyWlLk6GJQsqaUBKTNV-7" value="暂停" style="rounded=1;whiteSpace=wrap;html=1;fontSize=12;glass=0;strokeWidth=1;shadow=0;" parent="WIyWlLk6GJQsqaUBKTNV-1" vertex="1">
          <mxGeometry x="320" y="190" width="120" height="40" as="geometry" />
        </mxCell>
        <mxCell id="6UV9ZN7yxTBOZrWE2qNG-1" value="" style="edgeStyle=orthogonalEdgeStyle;rounded=0;orthogonalLoop=1;jettySize=auto;html=1;" edge="1" parent="WIyWlLk6GJQsqaUBKTNV-1" source="WIyWlLk6GJQsqaUBKTNV-11" target="6UV9ZN7yxTBOZrWE2qNG-0">
          <mxGeometry relative="1" as="geometry" />
        </mxCell>
        <mxCell id="6UV9ZN7yxTBOZrWE2qNG-3" value="" style="edgeStyle=orthogonalEdgeStyle;rounded=0;orthogonalLoop=1;jettySize=auto;html=1;" edge="1" parent="WIyWlLk6GJQsqaUBKTNV-1" source="WIyWlLk6GJQsqaUBKTNV-11" target="6UV9ZN7yxTBOZrWE2qNG-2">
          <mxGeometry relative="1" as="geometry" />
        </mxCell>
        <mxCell id="WIyWlLk6GJQsqaUBKTNV-11" value="暂停待审核界面" style="rounded=1;whiteSpace=wrap;html=1;fontSize=12;glass=0;strokeWidth=1;shadow=0;" parent="WIyWlLk6GJQsqaUBKTNV-1" vertex="1">
          <mxGeometry x="280" y="410" width="120" height="40" as="geometry" />
        </mxCell>
        <mxCell id="6UV9ZN7yxTBOZrWE2qNG-62" value="" style="edgeStyle=orthogonalEdgeStyle;rounded=0;orthogonalLoop=1;jettySize=auto;html=1;" edge="1" parent="WIyWlLk6GJQsqaUBKTNV-1" source="WIyWlLk6GJQsqaUBKTNV-12" target="6UV9ZN7yxTBOZrWE2qNG-61">
          <mxGeometry relative="1" as="geometry" />
        </mxCell>
        <mxCell id="WIyWlLk6GJQsqaUBKTNV-12" value="暂停待审核" style="rounded=1;whiteSpace=wrap;html=1;fontSize=12;glass=0;strokeWidth=1;shadow=0;" parent="WIyWlLk6GJQsqaUBKTNV-1" vertex="1">
          <mxGeometry x="160" y="290" width="120" height="40" as="geometry" />
        </mxCell>
        <mxCell id="6UV9ZN7yxTBOZrWE2qNG-0" value="广告组长审核" style="rounded=1;whiteSpace=wrap;html=1;fontSize=12;glass=0;strokeWidth=1;shadow=0;" vertex="1" parent="WIyWlLk6GJQsqaUBKTNV-1">
          <mxGeometry x="480" y="410" width="120" height="40" as="geometry" />
        </mxCell>
        <mxCell id="6UV9ZN7yxTBOZrWE2qNG-8" value="" style="edgeStyle=orthogonalEdgeStyle;rounded=0;orthogonalLoop=1;jettySize=auto;html=1;" edge="1" parent="WIyWlLk6GJQsqaUBKTNV-1" source="6UV9ZN7yxTBOZrWE2qNG-2" target="6UV9ZN7yxTBOZrWE2qNG-7">
          <mxGeometry relative="1" as="geometry" />
        </mxCell>
        <mxCell id="6UV9ZN7yxTBOZrWE2qNG-9" value="通过" style="edgeLabel;html=1;align=center;verticalAlign=middle;resizable=0;points=[];" vertex="1" connectable="0" parent="6UV9ZN7yxTBOZrWE2qNG-8">
          <mxGeometry x="-0.2632" y="2" relative="1" as="geometry">
            <mxPoint as="offset" />
          </mxGeometry>
        </mxCell>
        <mxCell id="6UV9ZN7yxTBOZrWE2qNG-2" value="广告组长审核" style="rhombus;whiteSpace=wrap;html=1;rounded=1;shadow=0;strokeWidth=1;glass=0;" vertex="1" parent="WIyWlLk6GJQsqaUBKTNV-1">
          <mxGeometry x="290" y="500" width="100" height="90" as="geometry" />
        </mxCell>
        <mxCell id="6UV9ZN7yxTBOZrWE2qNG-4" value="广告启用" style="whiteSpace=wrap;html=1;rounded=1;shadow=0;strokeWidth=1;glass=0;" vertex="1" parent="WIyWlLk6GJQsqaUBKTNV-1">
          <mxGeometry x="474" y="515" width="120" height="60" as="geometry" />
        </mxCell>
        <mxCell id="6UV9ZN7yxTBOZrWE2qNG-5" value="" style="edgeStyle=orthogonalEdgeStyle;rounded=0;orthogonalLoop=1;jettySize=auto;html=1;" edge="1" parent="WIyWlLk6GJQsqaUBKTNV-1" source="6UV9ZN7yxTBOZrWE2qNG-2" target="6UV9ZN7yxTBOZrWE2qNG-4">
          <mxGeometry relative="1" as="geometry">
            <Array as="points">
              <mxPoint x="430" y="545" />
              <mxPoint x="430" y="545" />
            </Array>
          </mxGeometry>
        </mxCell>
        <mxCell id="6UV9ZN7yxTBOZrWE2qNG-6" value="不通过" style="edgeLabel;html=1;align=center;verticalAlign=middle;resizable=0;points=[];" vertex="1" connectable="0" parent="6UV9ZN7yxTBOZrWE2qNG-5">
          <mxGeometry x="0.0197" relative="1" as="geometry">
            <mxPoint as="offset" />
          </mxGeometry>
        </mxCell>
        <mxCell id="6UV9ZN7yxTBOZrWE2qNG-7" value="广告暂停" style="whiteSpace=wrap;html=1;rounded=1;shadow=0;strokeWidth=1;glass=0;" vertex="1" parent="WIyWlLk6GJQsqaUBKTNV-1">
          <mxGeometry x="280" y="650" width="120" height="60" as="geometry" />
        </mxCell>
        <mxCell id="6UV9ZN7yxTBOZrWE2qNG-14" value="" style="shape=table;html=1;whiteSpace=wrap;startSize=0;container=1;collapsible=0;childLayout=tableLayout;" vertex="1" parent="WIyWlLk6GJQsqaUBKTNV-1">
          <mxGeometry x="160" y="850" width="760" height="310" as="geometry" />
        </mxCell>
        <mxCell id="6UV9ZN7yxTBOZrWE2qNG-15" value="" style="shape=partialRectangle;html=1;whiteSpace=wrap;collapsible=0;dropTarget=0;pointerEvents=0;fillColor=none;top=0;left=0;bottom=0;right=0;points=[[0,0.5],[1,0.5]];portConstraint=eastwest;" vertex="1" parent="6UV9ZN7yxTBOZrWE2qNG-14">
          <mxGeometry width="760" height="54" as="geometry" />
        </mxCell>
        <mxCell id="6UV9ZN7yxTBOZrWE2qNG-16" value="广告活动" style="shape=partialRectangle;html=1;whiteSpace=wrap;connectable=0;overflow=hidden;fillColor=none;top=0;left=0;bottom=0;right=0;" vertex="1" parent="6UV9ZN7yxTBOZrWE2qNG-15">
          <mxGeometry width="95" height="54" as="geometry" />
        </mxCell>
        <mxCell id="6UV9ZN7yxTBOZrWE2qNG-17" value="广告专员" style="shape=partialRectangle;html=1;whiteSpace=wrap;connectable=0;overflow=hidden;fillColor=none;top=0;left=0;bottom=0;right=0;" vertex="1" parent="6UV9ZN7yxTBOZrWE2qNG-15">
          <mxGeometry x="95" width="96" height="54" as="geometry" />
        </mxCell>
        <mxCell id="6UV9ZN7yxTBOZrWE2qNG-18" value="暂停备注说明" style="shape=partialRectangle;html=1;whiteSpace=wrap;connectable=0;overflow=hidden;fillColor=none;top=0;left=0;bottom=0;right=0;" vertex="1" parent="6UV9ZN7yxTBOZrWE2qNG-15">
          <mxGeometry x="191" width="94" height="54" as="geometry" />
        </mxCell>
        <mxCell id="6UV9ZN7yxTBOZrWE2qNG-19" value="申请时间" style="shape=partialRectangle;html=1;whiteSpace=wrap;connectable=0;overflow=hidden;fillColor=none;top=0;left=0;bottom=0;right=0;" vertex="1" parent="6UV9ZN7yxTBOZrWE2qNG-15">
          <mxGeometry x="285" width="95" height="54" as="geometry" />
        </mxCell>
        <mxCell id="6UV9ZN7yxTBOZrWE2qNG-20" value="审核是否通过" style="shape=partialRectangle;html=1;whiteSpace=wrap;connectable=0;overflow=hidden;fillColor=none;top=0;left=0;bottom=0;right=0;" vertex="1" parent="6UV9ZN7yxTBOZrWE2qNG-15">
          <mxGeometry x="380" width="95" height="54" as="geometry" />
        </mxCell>
        <mxCell id="6UV9ZN7yxTBOZrWE2qNG-21" value="审核人" style="shape=partialRectangle;html=1;whiteSpace=wrap;connectable=0;overflow=hidden;fillColor=none;top=0;left=0;bottom=0;right=0;" vertex="1" parent="6UV9ZN7yxTBOZrWE2qNG-15">
          <mxGeometry x="475" width="96" height="54" as="geometry" />
        </mxCell>
        <mxCell id="6UV9ZN7yxTBOZrWE2qNG-22" value="" style="shape=partialRectangle;html=1;whiteSpace=wrap;connectable=0;overflow=hidden;fillColor=none;top=0;left=0;bottom=0;right=0;" vertex="1" parent="6UV9ZN7yxTBOZrWE2qNG-15">
          <mxGeometry x="571" width="94" height="54" as="geometry" />
        </mxCell>
        <mxCell id="6UV9ZN7yxTBOZrWE2qNG-23" value="" style="shape=partialRectangle;html=1;whiteSpace=wrap;connectable=0;overflow=hidden;fillColor=none;top=0;left=0;bottom=0;right=0;" vertex="1" parent="6UV9ZN7yxTBOZrWE2qNG-15">
          <mxGeometry x="665" width="95" height="54" as="geometry" />
        </mxCell>
        <mxCell id="6UV9ZN7yxTBOZrWE2qNG-24" value="" style="shape=partialRectangle;html=1;whiteSpace=wrap;collapsible=0;dropTarget=0;pointerEvents=0;fillColor=none;top=0;left=0;bottom=0;right=0;points=[[0,0.5],[1,0.5]];portConstraint=eastwest;" vertex="1" parent="6UV9ZN7yxTBOZrWE2qNG-14">
          <mxGeometry y="54" width="760" height="94" as="geometry" />
        </mxCell>
        <mxCell id="6UV9ZN7yxTBOZrWE2qNG-25" value="" style="shape=partialRectangle;html=1;whiteSpace=wrap;connectable=0;overflow=hidden;fillColor=none;top=0;left=0;bottom=0;right=0;" vertex="1" parent="6UV9ZN7yxTBOZrWE2qNG-24">
          <mxGeometry width="95" height="94" as="geometry" />
        </mxCell>
        <mxCell id="6UV9ZN7yxTBOZrWE2qNG-26" value="" style="shape=partialRectangle;html=1;whiteSpace=wrap;connectable=0;overflow=hidden;fillColor=none;top=0;left=0;bottom=0;right=0;" vertex="1" parent="6UV9ZN7yxTBOZrWE2qNG-24">
          <mxGeometry x="95" width="96" height="94" as="geometry" />
        </mxCell>
        <mxCell id="6UV9ZN7yxTBOZrWE2qNG-27" value="" style="shape=partialRectangle;html=1;whiteSpace=wrap;connectable=0;overflow=hidden;fillColor=none;top=0;left=0;bottom=0;right=0;" vertex="1" parent="6UV9ZN7yxTBOZrWE2qNG-24">
          <mxGeometry x="191" width="94" height="94" as="geometry" />
        </mxCell>
        <mxCell id="6UV9ZN7yxTBOZrWE2qNG-28" value="" style="shape=partialRectangle;html=1;whiteSpace=wrap;connectable=0;overflow=hidden;fillColor=none;top=0;left=0;bottom=0;right=0;" vertex="1" parent="6UV9ZN7yxTBOZrWE2qNG-24">
          <mxGeometry x="285" width="95" height="94" as="geometry" />
        </mxCell>
        <mxCell id="6UV9ZN7yxTBOZrWE2qNG-29" value="" style="shape=partialRectangle;html=1;whiteSpace=wrap;connectable=0;overflow=hidden;fillColor=none;top=0;left=0;bottom=0;right=0;" vertex="1" parent="6UV9ZN7yxTBOZrWE2qNG-24">
          <mxGeometry x="380" width="95" height="94" as="geometry" />
        </mxCell>
        <mxCell id="6UV9ZN7yxTBOZrWE2qNG-30" value="" style="shape=partialRectangle;html=1;whiteSpace=wrap;connectable=0;overflow=hidden;fillColor=none;top=0;left=0;bottom=0;right=0;" vertex="1" parent="6UV9ZN7yxTBOZrWE2qNG-24">
          <mxGeometry x="475" width="96" height="94" as="geometry" />
        </mxCell>
        <mxCell id="6UV9ZN7yxTBOZrWE2qNG-31" value="" style="shape=partialRectangle;html=1;whiteSpace=wrap;connectable=0;overflow=hidden;fillColor=none;top=0;left=0;bottom=0;right=0;" vertex="1" parent="6UV9ZN7yxTBOZrWE2qNG-24">
          <mxGeometry x="571" width="94" height="94" as="geometry" />
        </mxCell>
        <mxCell id="6UV9ZN7yxTBOZrWE2qNG-32" value="" style="shape=partialRectangle;html=1;whiteSpace=wrap;connectable=0;overflow=hidden;fillColor=none;top=0;left=0;bottom=0;right=0;" vertex="1" parent="6UV9ZN7yxTBOZrWE2qNG-24">
          <mxGeometry x="665" width="95" height="94" as="geometry" />
        </mxCell>
        <mxCell id="6UV9ZN7yxTBOZrWE2qNG-33" value="" style="shape=partialRectangle;html=1;whiteSpace=wrap;collapsible=0;dropTarget=0;pointerEvents=0;fillColor=none;top=0;left=0;bottom=0;right=0;points=[[0,0.5],[1,0.5]];portConstraint=eastwest;" vertex="1" parent="6UV9ZN7yxTBOZrWE2qNG-14">
          <mxGeometry y="148" width="760" height="54" as="geometry" />
        </mxCell>
        <mxCell id="6UV9ZN7yxTBOZrWE2qNG-34" value="" style="shape=partialRectangle;html=1;whiteSpace=wrap;connectable=0;overflow=hidden;fillColor=none;top=0;left=0;bottom=0;right=0;" vertex="1" parent="6UV9ZN7yxTBOZrWE2qNG-33">
          <mxGeometry width="95" height="54" as="geometry" />
        </mxCell>
        <mxCell id="6UV9ZN7yxTBOZrWE2qNG-35" value="" style="shape=partialRectangle;html=1;whiteSpace=wrap;connectable=0;overflow=hidden;fillColor=none;top=0;left=0;bottom=0;right=0;" vertex="1" parent="6UV9ZN7yxTBOZrWE2qNG-33">
          <mxGeometry x="95" width="96" height="54" as="geometry" />
        </mxCell>
        <mxCell id="6UV9ZN7yxTBOZrWE2qNG-36" value="" style="shape=partialRectangle;html=1;whiteSpace=wrap;connectable=0;overflow=hidden;fillColor=none;top=0;left=0;bottom=0;right=0;" vertex="1" parent="6UV9ZN7yxTBOZrWE2qNG-33">
          <mxGeometry x="191" width="94" height="54" as="geometry" />
        </mxCell>
        <mxCell id="6UV9ZN7yxTBOZrWE2qNG-37" value="" style="shape=partialRectangle;html=1;whiteSpace=wrap;connectable=0;overflow=hidden;fillColor=none;top=0;left=0;bottom=0;right=0;" vertex="1" parent="6UV9ZN7yxTBOZrWE2qNG-33">
          <mxGeometry x="285" width="95" height="54" as="geometry" />
        </mxCell>
        <mxCell id="6UV9ZN7yxTBOZrWE2qNG-38" value="" style="shape=partialRectangle;html=1;whiteSpace=wrap;connectable=0;overflow=hidden;fillColor=none;top=0;left=0;bottom=0;right=0;" vertex="1" parent="6UV9ZN7yxTBOZrWE2qNG-33">
          <mxGeometry x="380" width="95" height="54" as="geometry" />
        </mxCell>
        <mxCell id="6UV9ZN7yxTBOZrWE2qNG-39" value="" style="shape=partialRectangle;html=1;whiteSpace=wrap;connectable=0;overflow=hidden;fillColor=none;top=0;left=0;bottom=0;right=0;" vertex="1" parent="6UV9ZN7yxTBOZrWE2qNG-33">
          <mxGeometry x="475" width="96" height="54" as="geometry" />
        </mxCell>
        <mxCell id="6UV9ZN7yxTBOZrWE2qNG-40" value="" style="shape=partialRectangle;html=1;whiteSpace=wrap;connectable=0;overflow=hidden;fillColor=none;top=0;left=0;bottom=0;right=0;" vertex="1" parent="6UV9ZN7yxTBOZrWE2qNG-33">
          <mxGeometry x="571" width="94" height="54" as="geometry" />
        </mxCell>
        <mxCell id="6UV9ZN7yxTBOZrWE2qNG-41" value="" style="shape=partialRectangle;html=1;whiteSpace=wrap;connectable=0;overflow=hidden;fillColor=none;top=0;left=0;bottom=0;right=0;" vertex="1" parent="6UV9ZN7yxTBOZrWE2qNG-33">
          <mxGeometry x="665" width="95" height="54" as="geometry" />
        </mxCell>
        <mxCell id="6UV9ZN7yxTBOZrWE2qNG-42" value="" style="shape=partialRectangle;html=1;whiteSpace=wrap;collapsible=0;dropTarget=0;pointerEvents=0;fillColor=none;top=0;left=0;bottom=0;right=0;points=[[0,0.5],[1,0.5]];portConstraint=eastwest;" vertex="1" parent="6UV9ZN7yxTBOZrWE2qNG-14">
          <mxGeometry y="202" width="760" height="54" as="geometry" />
        </mxCell>
        <mxCell id="6UV9ZN7yxTBOZrWE2qNG-43" value="" style="shape=partialRectangle;html=1;whiteSpace=wrap;connectable=0;overflow=hidden;fillColor=none;top=0;left=0;bottom=0;right=0;" vertex="1" parent="6UV9ZN7yxTBOZrWE2qNG-42">
          <mxGeometry width="95" height="54" as="geometry" />
        </mxCell>
        <mxCell id="6UV9ZN7yxTBOZrWE2qNG-44" value="" style="shape=partialRectangle;html=1;whiteSpace=wrap;connectable=0;overflow=hidden;fillColor=none;top=0;left=0;bottom=0;right=0;" vertex="1" parent="6UV9ZN7yxTBOZrWE2qNG-42">
          <mxGeometry x="95" width="96" height="54" as="geometry" />
        </mxCell>
        <mxCell id="6UV9ZN7yxTBOZrWE2qNG-45" value="" style="shape=partialRectangle;html=1;whiteSpace=wrap;connectable=0;overflow=hidden;fillColor=none;top=0;left=0;bottom=0;right=0;" vertex="1" parent="6UV9ZN7yxTBOZrWE2qNG-42">
          <mxGeometry x="191" width="94" height="54" as="geometry" />
        </mxCell>
        <mxCell id="6UV9ZN7yxTBOZrWE2qNG-46" value="" style="shape=partialRectangle;html=1;whiteSpace=wrap;connectable=0;overflow=hidden;fillColor=none;top=0;left=0;bottom=0;right=0;" vertex="1" parent="6UV9ZN7yxTBOZrWE2qNG-42">
          <mxGeometry x="285" width="95" height="54" as="geometry" />
        </mxCell>
        <mxCell id="6UV9ZN7yxTBOZrWE2qNG-47" value="" style="shape=partialRectangle;html=1;whiteSpace=wrap;connectable=0;overflow=hidden;fillColor=none;top=0;left=0;bottom=0;right=0;" vertex="1" parent="6UV9ZN7yxTBOZrWE2qNG-42">
          <mxGeometry x="380" width="95" height="54" as="geometry" />
        </mxCell>
        <mxCell id="6UV9ZN7yxTBOZrWE2qNG-48" value="" style="shape=partialRectangle;html=1;whiteSpace=wrap;connectable=0;overflow=hidden;fillColor=none;top=0;left=0;bottom=0;right=0;" vertex="1" parent="6UV9ZN7yxTBOZrWE2qNG-42">
          <mxGeometry x="475" width="96" height="54" as="geometry" />
        </mxCell>
        <mxCell id="6UV9ZN7yxTBOZrWE2qNG-49" value="" style="shape=partialRectangle;html=1;whiteSpace=wrap;connectable=0;overflow=hidden;fillColor=none;top=0;left=0;bottom=0;right=0;" vertex="1" parent="6UV9ZN7yxTBOZrWE2qNG-42">
          <mxGeometry x="571" width="94" height="54" as="geometry" />
        </mxCell>
        <mxCell id="6UV9ZN7yxTBOZrWE2qNG-50" value="" style="shape=partialRectangle;html=1;whiteSpace=wrap;connectable=0;overflow=hidden;fillColor=none;top=0;left=0;bottom=0;right=0;" vertex="1" parent="6UV9ZN7yxTBOZrWE2qNG-42">
          <mxGeometry x="665" width="95" height="54" as="geometry" />
        </mxCell>
        <mxCell id="6UV9ZN7yxTBOZrWE2qNG-51" value="" style="shape=partialRectangle;html=1;whiteSpace=wrap;collapsible=0;dropTarget=0;pointerEvents=0;fillColor=none;top=0;left=0;bottom=0;right=0;points=[[0,0.5],[1,0.5]];portConstraint=eastwest;" vertex="1" parent="6UV9ZN7yxTBOZrWE2qNG-14">
          <mxGeometry y="256" width="760" height="54" as="geometry" />
        </mxCell>
        <mxCell id="6UV9ZN7yxTBOZrWE2qNG-52" value="" style="shape=partialRectangle;html=1;whiteSpace=wrap;connectable=0;overflow=hidden;fillColor=none;top=0;left=0;bottom=0;right=0;" vertex="1" parent="6UV9ZN7yxTBOZrWE2qNG-51">
          <mxGeometry width="95" height="54" as="geometry" />
        </mxCell>
        <mxCell id="6UV9ZN7yxTBOZrWE2qNG-53" value="" style="shape=partialRectangle;html=1;whiteSpace=wrap;connectable=0;overflow=hidden;fillColor=none;top=0;left=0;bottom=0;right=0;" vertex="1" parent="6UV9ZN7yxTBOZrWE2qNG-51">
          <mxGeometry x="95" width="96" height="54" as="geometry" />
        </mxCell>
        <mxCell id="6UV9ZN7yxTBOZrWE2qNG-54" value="" style="shape=partialRectangle;html=1;whiteSpace=wrap;connectable=0;overflow=hidden;fillColor=none;top=0;left=0;bottom=0;right=0;" vertex="1" parent="6UV9ZN7yxTBOZrWE2qNG-51">
          <mxGeometry x="191" width="94" height="54" as="geometry" />
        </mxCell>
        <mxCell id="6UV9ZN7yxTBOZrWE2qNG-55" value="" style="shape=partialRectangle;html=1;whiteSpace=wrap;connectable=0;overflow=hidden;fillColor=none;top=0;left=0;bottom=0;right=0;" vertex="1" parent="6UV9ZN7yxTBOZrWE2qNG-51">
          <mxGeometry x="285" width="95" height="54" as="geometry" />
        </mxCell>
        <mxCell id="6UV9ZN7yxTBOZrWE2qNG-56" value="" style="shape=partialRectangle;html=1;whiteSpace=wrap;connectable=0;overflow=hidden;fillColor=none;top=0;left=0;bottom=0;right=0;" vertex="1" parent="6UV9ZN7yxTBOZrWE2qNG-51">
          <mxGeometry x="380" width="95" height="54" as="geometry" />
        </mxCell>
        <mxCell id="6UV9ZN7yxTBOZrWE2qNG-57" value="" style="shape=partialRectangle;html=1;whiteSpace=wrap;connectable=0;overflow=hidden;fillColor=none;top=0;left=0;bottom=0;right=0;" vertex="1" parent="6UV9ZN7yxTBOZrWE2qNG-51">
          <mxGeometry x="475" width="96" height="54" as="geometry" />
        </mxCell>
        <mxCell id="6UV9ZN7yxTBOZrWE2qNG-58" value="" style="shape=partialRectangle;html=1;whiteSpace=wrap;connectable=0;overflow=hidden;fillColor=none;top=0;left=0;bottom=0;right=0;" vertex="1" parent="6UV9ZN7yxTBOZrWE2qNG-51">
          <mxGeometry x="571" width="94" height="54" as="geometry" />
        </mxCell>
        <mxCell id="6UV9ZN7yxTBOZrWE2qNG-59" value="" style="shape=partialRectangle;html=1;whiteSpace=wrap;connectable=0;overflow=hidden;fillColor=none;top=0;left=0;bottom=0;right=0;" vertex="1" parent="6UV9ZN7yxTBOZrWE2qNG-51">
          <mxGeometry x="665" width="95" height="54" as="geometry" />
        </mxCell>
        <mxCell id="6UV9ZN7yxTBOZrWE2qNG-60" value="暂停待审核界面" style="text;html=1;strokeColor=none;fillColor=none;align=center;verticalAlign=middle;whiteSpace=wrap;rounded=0;" vertex="1" parent="WIyWlLk6GJQsqaUBKTNV-1">
          <mxGeometry x="120" y="760" width="160" height="20" as="geometry" />
        </mxCell>
        <mxCell id="6UV9ZN7yxTBOZrWE2qNG-64" value="" style="edgeStyle=orthogonalEdgeStyle;rounded=0;orthogonalLoop=1;jettySize=auto;html=1;" edge="1" parent="WIyWlLk6GJQsqaUBKTNV-1" source="6UV9ZN7yxTBOZrWE2qNG-61" target="6UV9ZN7yxTBOZrWE2qNG-63">
          <mxGeometry relative="1" as="geometry" />
        </mxCell>
        <mxCell id="6UV9ZN7yxTBOZrWE2qNG-65" value="是" style="edgeLabel;html=1;align=center;verticalAlign=middle;resizable=0;points=[];" vertex="1" connectable="0" parent="6UV9ZN7yxTBOZrWE2qNG-64">
          <mxGeometry x="-0.2167" y="1" relative="1" as="geometry">
            <mxPoint as="offset" />
          </mxGeometry>
        </mxCell>
        <mxCell id="6UV9ZN7yxTBOZrWE2qNG-61" value="添加备注" style="rhombus;whiteSpace=wrap;html=1;rounded=1;shadow=0;strokeWidth=1;glass=0;" vertex="1" parent="WIyWlLk6GJQsqaUBKTNV-1">
          <mxGeometry x="340" y="270" width="80" height="80" as="geometry" />
        </mxCell>
        <mxCell id="6UV9ZN7yxTBOZrWE2qNG-63" value="增加备注" style="whiteSpace=wrap;html=1;rounded=1;shadow=0;strokeWidth=1;glass=0;" vertex="1" parent="WIyWlLk6GJQsqaUBKTNV-1">
          <mxGeometry x="480" y="280" width="120" height="60" as="geometry" />
        </mxCell>
        <mxCell id="6UV9ZN7yxTBOZrWE2qNG-66" value="" style="endArrow=classic;html=1;exitX=0.5;exitY=1;exitDx=0;exitDy=0;entryX=0.817;entryY=0.05;entryDx=0;entryDy=0;entryPerimeter=0;" edge="1" parent="WIyWlLk6GJQsqaUBKTNV-1" source="6UV9ZN7yxTBOZrWE2qNG-61" target="WIyWlLk6GJQsqaUBKTNV-11">
          <mxGeometry width="50" height="50" relative="1" as="geometry">
            <mxPoint x="520" y="605" as="sourcePoint" />
            <mxPoint x="230" y="390" as="targetPoint" />
            <Array as="points" />
          </mxGeometry>
        </mxCell>
        <mxCell id="6UV9ZN7yxTBOZrWE2qNG-67" value="" style="endArrow=classic;html=1;exitX=0.5;exitY=1;exitDx=0;exitDy=0;" edge="1" parent="WIyWlLk6GJQsqaUBKTNV-1" source="6UV9ZN7yxTBOZrWE2qNG-63">
          <mxGeometry width="50" height="50" relative="1" as="geometry">
            <mxPoint x="390" y="570" as="sourcePoint" />
            <mxPoint x="380" y="407" as="targetPoint" />
          </mxGeometry>
        </mxCell>
        <mxCell id="6UV9ZN7yxTBOZrWE2qNG-68" value="店铺搜索" style="rounded=0;whiteSpace=wrap;html=1;" vertex="1" parent="WIyWlLk6GJQsqaUBKTNV-1">
          <mxGeometry x="230" y="780" width="120" height="60" as="geometry" />
        </mxCell>
        <mxCell id="6UV9ZN7yxTBOZrWE2qNG-69" value="广告专员搜索" style="rounded=0;whiteSpace=wrap;html=1;" vertex="1" parent="WIyWlLk6GJQsqaUBKTNV-1">
          <mxGeometry x="370" y="780" width="120" height="60" as="geometry" />
        </mxCell>
        <mxCell id="6UV9ZN7yxTBOZrWE2qNG-70" value="广告组长" style="rounded=0;whiteSpace=wrap;html=1;" vertex="1" parent="WIyWlLk6GJQsqaUBKTNV-1">
          <mxGeometry x="520" y="780" width="120" height="60" as="geometry" />
        </mxCell>
        <mxCell id="6UV9ZN7yxTBOZrWE2qNG-71" value="是否已审核" style="rounded=0;whiteSpace=wrap;html=1;" vertex="1" parent="WIyWlLk6GJQsqaUBKTNV-1">
          <mxGeometry x="660" y="780" width="120" height="60" as="geometry" />
        </mxCell>
      </root>
    </mxGraphModel>
  </diagram>
</mxfile>
